<svg xmlns="http://www.w3.org/2000/svg" xmlns:xlink="http://www.w3.org/1999/xlink" version="1.1" viewBox="0 0 360 107" fill="#3a3a3a">
	<g>
		<path d="M221.8,29.3c2.5,0,4.3-1.9,4.3-4.3c0-2.4-1.9-4.3-4.3-4.3c-2.4,0-4.3,2-4.3,4.3   C217.4,27.4,219.4,29.3,221.8,29.3z"/>
		<path d="M338.4,38.6c-7.7,3.9-12.2,10.7-12.3,16.6l-0.1,0.1c-3.2,6.2-7.7,12.6-11.3,17.1v-23c0-7.6,0.4-11.4,0.4-12.5   c0-0.7-0.4-1.1-1.6-1.1c-2.2,0-5.9,1.6-5.9,4.3v0.6c-2.4-3.2-6.3-5-10.4-5c-9.4,0-14.7,9.6-15.8,19.8l-0.4,0.8   c-7.3,14.4-10.1,17.6-12,17.6c-1.4,0-2.2-1.1-2.2-3.5c0-7.1,2.3-18.1,2.3-25.4c0-5.7-2.4-9.3-7.7-9.3c-5.9,0-11.6,6-15.8,12.7   c0.2-6.8,0.6-10.7,0.6-10.5c0-1.6-0.4-2.2-1.6-2.2c-1.2,0-5,0.2-5.9,2.2c-0.2,0.4-0.2,1.2-0.2,2.6v14.9l-0.5,0.9   c-6.6,13.1-9.7,16.6-12,16.6c-1.6,0-3.5-0.7-3.5-9.6c0-12.3,1.5-23.8,1.5-25.4c0-1.6-0.4-2.2-2-2.2c-0.7,0-3.5,0.5-4.3,2.2   c-1,2.2-1.7,10.2-5.3,17.3l-0.5,1.1c-6.1,12.1-8.9,17.5-11.2,17.5c-1.1,0-1.6-1.1-1.6-3.3c0-7.1,2.6-18.2,2.6-25.5   c0-5.7-2.4-9.3-7.7-9.3c-6.2,0-11.5,5.7-15.4,12.9c-0.4-7.3-2.1-12.9-8.4-12.9c-5.2,0-9.9,5.4-12.6,11.8c0.1-2.9,0.1-5.8,0.1-9.4   c0-1.6-0.3-2.4-1.6-2.4c-1.2,0-4.6,0.2-5.3,2.2c-0.2,0.6-0.3,2.1-0.3,5.4c0,2.7,0,6.5,0.1,12.2l-0.4,0.9c-1.8,3.6-4.8,5.7-8.1,6.7   c0.5-2.3,0.8-4.7,0.8-7.1c0-13.1-6.9-19.8-12.8-19.8c-4.9,0-9.3,4.1-9.3,12c0,9.6,6.5,16.6,13.8,18.2c-1.4,6.2-4.3,10-8.8,10   c-6.5,0-10.3-9.2-10.3-19c0-16,7.7-20.9,7.7-20.9l-0.7-1.9c-2.7,0-14,6.8-14.6,21.6l-0.1,0.2c-1.8,3.6-4.8,5.7-8.1,6.7   c0.5-2.3,0.8-4.7,0.8-7.1c0-13.1-6.9-19.8-12.8-19.8c-4.9,0-9.3,4.1-9.3,12c0,9.6,6.5,16.6,13.8,18.2c-1.4,6.2-4.3,10-8.8,10   c-6.5,0-10.3-9.2-10.3-19c0-16,7.7-20.9,7.7-20.9l-0.7-1.9c-2.7,0-14.1,6.8-14.6,21.7l0,0c-4.4,9-8.6,16-11.2,16   c-2.6,0-3.8-4.1-4.7-21.4c4.2-13.7,9.5-34.5,9.5-45c0-4.6-1.6-6-3.8-6c-7.1,0-13.2,14.1-13.2,47.7c0,3.2,0.1,6.1,0.2,8.7   c-1.8,3.6-4.8,5.7-8.1,6.7c0.5-2.3,0.8-4.7,0.8-7.1c0-13.1-6.9-19.8-12.8-19.8c-4.9,0-9.3,4.1-9.3,12c0,9.6,6.5,16.6,13.8,18.2   c-1.4,6.2-4.3,10-8.8,10C11.9,76.5,8.2,67.2,8,51c4.2-13.7,9.5-34.5,9.5-45c0-4.6-1.6-6-3.8-6C6.7,0,0,13,0,46.7   c0,24.1,7.6,32.5,18.1,32.5c7.5,0,12.9-5.4,15.5-12.6c3.6-0.7,6.9-2.5,9.4-5.6c1,13.5,3.9,18.2,8.8,18.2c4.4,0,8.1-5.2,14.4-17.4   c1.4,9.9,7.8,17.4,17.3,17.4c7.5,0,12.9-5.4,15.5-12.6c3.6-0.7,6.9-2.5,9.4-5.6c1.2,10.3,7.6,18.2,17.4,18.2   c7.5,0,12.9-5.4,15.5-12.6c3.7-0.7,7.1-2.7,9.6-5.8c0,1.8,0,3.7,0,5.7c-0.7,3.4-1.6,8-1.6,10.1c0,2.2,1.1,2.6,2.2,2.6   c1.6,0,6-1.1,6-3.8c0-8.2,0.2-15.1,0.4-21.3v-0.6c3.1-7.6,6.3-13.8,10.4-13.8c3.3,0,4.1,4.8,4.1,12.1c0,3.3-0.2,10-0.3,14.2   c-0.7,4.4-1.5,9-1.5,10.9c0,2,1,2.5,2.1,2.5c1.1,0,4.2-0.6,4.9-1.6c1.1-1.6,1.6-8.7,1.6-23.5c3-6.8,8.4-14.6,12.9-14.6   c2.3,0,3.4,1.7,3.4,4.3c0,6-2.8,19.9-2.8,28.3c0,5.6,2.8,7,5.8,7c5.1,0,7.7-4.4,16-21.1l0.5-1.1l0.5-1.1h0.5   c-0.1,2.2-0.1,4.2-0.1,6c0,13,2.6,17.3,8.4,17.3c5,0,9.8-8.5,14.6-17.8v5.1c-0.7,3.4-1.6,8-1.6,10.1c0,2.2,1.1,2.6,2.2,2.6   c1.6,0,6-1.1,6-3.2c0-8.3,0.2-15.7,0.4-21.9c3.4-6.8,9.6-14.6,13.6-14.6c2.3,0,3.4,1.7,3.4,4.3c0,6-2.8,19.9-2.8,28.3   c0,5.6,3.1,7,6.1,7c4.3,0,8.2-3.6,15.5-17.4c0.7,11.8,6.5,17.4,12.7,17.4c4.9,0,10.2-3.6,13.6-10.2v10   c-6.3,7.7-11.3,14.1-11.3,20.3c0,4.3,3,7,7,7c6.5,0,11.4-4.9,11.4-17.9V76.9c4.1-5.1,10-13.1,13.4-19.9c5.4,1.5,12.1,0.5,18.3-2.6   c7-3.6,12.1-9.3,13.5-15.3C355.3,35.1,346.6,34.4,338.4,38.6z M55,4.9c0.8,0,1.1,0.9,1.1,2.4c0,8.2-2.8,22.6-6.1,34.9   C50.2,26,52.6,4.9,55,4.9z M13,4.9c0.8,0,1.1,0.9,1.1,2.4c0,8.2-2.7,22.6-6.1,34.9C8.2,26,10.6,4.9,13,4.9z M27.7,63.3   c-5.9-1.4-10.9-7.1-10.9-15.5c0-4.7,2-7.4,4.3-7.4c3.6,0,6.9,6.4,6.9,16.5C28.2,59.2,28.1,61.4,27.7,63.3z M93,63.3   c-5.9-1.4-10.9-7.1-10.9-15.5c0-4.7,2-7.4,4.3-7.4c3.6,0,6.9,6.4,6.9,16.5C93.5,59.2,93.4,61.4,93,63.3z M135.2,63.3   c-5.9-1.4-10.9-7.1-10.9-15.5c0-4.7,2-7.4,4.3-7.4c3.6,0,6.9,6.4,6.9,16.5C135.7,59.2,135.6,61.4,135.2,63.3z M307.6,91.1   c0,10.9-2.5,12-4.8,12c-2.2,0-3.4-2-3.4-4.1c0-4.6,3.4-9.9,8.3-15.7V91.1z M307.6,63.6c-1.4,4.4-6,10.1-10.3,10.1   c-5.8,0-8.5-7.1-8.5-17.9c0-8.8,3.3-17.6,10.1-17.6c4.3,0,8.7,4,8.7,10.4V63.6z"/>
	</g>
</svg>